<svg xmlns="http://www.w3.org/2000/svg" viewBox="0 0 1333.45 623.43"><defs><style>.cls-1{fill:#b6862c;}</style></defs><g id="Layer_2" data-name="Layer 2"><g id="Layer_1-2" data-name="Layer 1"><path class="cls-1" d="M399.5,92.89c54.48,99.24-240-46-334,21s227,159-5,221c-117.63,31.44-39,156,28,191s163.92,72.93,226,0c103-121,171.34-130.13,194-22,22,105,110.31,131.55,200,115,103-19,134-264,262-120,123.66,139.12,252,19,329-90s9-198-65-224-360,61.34-163-107c103-88-228-103-314-37C670.91,107.34,315.5-60.11,399.5,92.89Z"/></g></g></svg>